<?xml version="1.0" encoding="UTF-8" standalone="no"?>
<!-- Created with Inkscape (http://www.inkscape.org/) -->

<svg
   width="338.66666mm"
   height="169.33333mm"
   viewBox="0 0 338.66665 169.33333"
   version="1.1"
   id="svg1"
   xml:space="preserve"
   inkscape:version="1.4.4 (dcaf3e7d9e, 2026-05-05)"
   sodipodi:docname="banner.svg"
   xmlns:inkscape="http://www.inkscape.org/namespaces/inkscape"
   xmlns:sodipodi="http://sodipodi.sourceforge.net/DTD/sodipodi-0.dtd"
   xmlns="http://www.w3.org/2000/svg"
   xmlns:svg="http://www.w3.org/2000/svg"><sodipodi:namedview
     id="namedview1"
     pagecolor="#ffffff"
     bordercolor="#000000"
     borderopacity="0.25"
     inkscape:showpageshadow="2"
     inkscape:pageopacity="0.0"
     inkscape:pagecheckerboard="0"
     inkscape:deskcolor="#d1d1d1"
     inkscape:document-units="mm"
     inkscape:zoom="0.35500491"
     inkscape:cx="578.86523"
     inkscape:cy="49.295093"
     inkscape:window-width="1680"
     inkscape:window-height="1050"
     inkscape:window-x="0"
     inkscape:window-y="0"
     inkscape:window-maximized="1"
     inkscape:current-layer="svg1" /><defs
     id="defs1" /><rect
     fill="#000000"
     height="88.841484"
     width="225.38184"
     id="rect1"
     x="56.64241"
     y="40.245922"
     style="font-size:50px;font-family:'DejaVu Sans Mono', monospace;dominant-baseline:central;fill:#000000;fill-opacity:1;stroke-width:0.264584" /><g
     id="g2"
     transform="matrix(0.7959678,0,0,0.7959678,51.603939,32.133401)"
     style="stroke-width:1.25634"><path
       d="M 33.063397,66.323977 V 50.607842 h 8.223034 v 15.716135 z"
       id="text1"
       style="font-size:13.2292px;font-family:'DejaVu Sans Mono', monospace;dominant-baseline:central;fill:#ffffff;stroke-width:0.332405"
       aria-label="█" /><path
       d="M 33.063397,79.553141 V 63.837006 h 8.223034 v 15.716135 z"
       id="text2"
       style="font-size:13.2292px;font-family:'DejaVu Sans Mono', monospace;dominant-baseline:central;fill:#ffffff;stroke-width:0.332405"
       aria-label="█" /><path
       d="m 41.000897,58.469139 v -7.854838 h 8.223034 v 7.854838 z"
       id="text3"
       style="font-size:13.2292px;font-family:'DejaVu Sans Mono', monospace;dominant-baseline:central;fill:#ffffff;stroke-width:0.332405"
       aria-label="▀" /><path
       d="m 41.000897,71.698303 v -7.854838 h 8.223034 v 7.854838 z"
       id="text4"
       style="font-size:13.2292px;font-family:'DejaVu Sans Mono', monospace;dominant-baseline:central;fill:#ffffff;stroke-width:0.332405"
       aria-label="▀" /><path
       d="m 48.938397,58.469139 v -7.854838 h 8.223034 v 7.854838 z"
       id="text5"
       style="font-size:13.2292px;font-family:'DejaVu Sans Mono', monospace;dominant-baseline:central;fill:#ffffff;stroke-width:0.332405"
       aria-label="▀" /><path
       d="m 48.938397,71.698303 v -7.854838 h 8.223034 v 7.854838 z"
       id="text6"
       style="font-size:13.2292px;font-family:'DejaVu Sans Mono', monospace;dominant-baseline:central;fill:#ffffff;stroke-width:0.332405"
       aria-label="▀" /><path
       d="m 56.875897,66.323977 v -7.854838 h 8.223034 v 7.854838 z"
       id="text7"
       style="font-size:13.2292px;font-family:'DejaVu Sans Mono', monospace;dominant-baseline:central;fill:#ffffff;stroke-width:0.332405"
       aria-label="▄" /><path
       d="m 56.875897,79.553141 v -7.854838 h 8.223034 v 7.854838 z"
       id="text8"
       style="font-size:13.2292px;font-family:'DejaVu Sans Mono', monospace;dominant-baseline:central;fill:#ffffff;stroke-width:0.332405"
       aria-label="▄" /><path
       d="m 72.750897,66.323977 v -7.854838 h 8.223034 v 7.854838 z"
       id="text9"
       style="font-size:13.2292px;font-family:'DejaVu Sans Mono', monospace;dominant-baseline:central;fill:#ffffff;stroke-width:0.332405"
       aria-label="▄" /><path
       d="M 72.750897,79.553141 V 63.837006 h 8.223034 v 15.716135 z"
       id="text10"
       style="font-size:13.2292px;font-family:'DejaVu Sans Mono', monospace;dominant-baseline:central;fill:#ffffff;stroke-width:0.332405"
       aria-label="█" /><path
       d="m 80.688397,58.469139 v -7.854838 h 8.223034 v 7.854838 z"
       id="text11"
       style="font-size:13.2292px;font-family:'DejaVu Sans Mono', monospace;dominant-baseline:central;fill:#ffffff;stroke-width:0.332405"
       aria-label="▀" /><path
       d="m 80.688397,71.698303 v -7.854838 h 8.223034 v 7.854838 z"
       id="text12"
       style="font-size:13.2292px;font-family:'DejaVu Sans Mono', monospace;dominant-baseline:central;fill:#ffffff;stroke-width:0.332405"
       aria-label="▀" /><path
       d="m 88.625897,58.469139 v -7.854838 h 8.223034 v 7.854838 z"
       id="text13"
       style="font-size:13.2292px;font-family:'DejaVu Sans Mono', monospace;dominant-baseline:central;fill:#ffffff;stroke-width:0.332405"
       aria-label="▀" /><path
       d="m 88.625897,71.698303 v -7.854838 h 8.223034 v 7.854838 z"
       id="text14"
       style="font-size:13.2292px;font-family:'DejaVu Sans Mono', monospace;dominant-baseline:central;fill:#ffffff;stroke-width:0.332405"
       aria-label="▀" /><path
       d="m 96.563397,66.323977 v -7.854838 h 8.223033 v 7.854838 z"
       id="text15"
       style="font-size:13.2292px;font-family:'DejaVu Sans Mono', monospace;dominant-baseline:central;fill:#ffffff;stroke-width:0.332405"
       aria-label="▄" /><path
       d="M 96.563397,79.553141 V 63.837006 h 8.223033 v 15.716135 z"
       id="text16"
       style="font-size:13.2292px;font-family:'DejaVu Sans Mono', monospace;dominant-baseline:central;fill:#ffffff;stroke-width:0.332405"
       aria-label="█" /><path
       d="m 108.61564,58.469139 v -7.854838 h 4.11475 v 7.854838 z"
       id="text17"
       style="font-size:13.2292px;font-family:'DejaVu Sans Mono', monospace;dominant-baseline:central;fill:#ffffff;stroke-width:0.332405"
       aria-label="▝" /><path
       d="m 120.66789,50.614301 v 15.709676 h -4.11475 v -7.854838 h -4.11474 v -7.854838 z"
       id="text18"
       style="font-size:13.2292px;font-family:'DejaVu Sans Mono', monospace;dominant-baseline:central;fill:#ffffff;stroke-width:0.332405"
       aria-label="▜" /><path
       d="M 116.55314,79.553141 V 63.837006 h 4.10829 v 15.716135 z"
       id="text19"
       style="font-size:13.2292px;font-family:'DejaVu Sans Mono', monospace;dominant-baseline:central;fill:#ffffff;stroke-width:0.332405"
       aria-label="▐" /><path
       d="m 120.3759,50.614301 h 8.22949 v 7.854838 h -4.11475 v 7.854838 h -4.11474 z"
       id="text20"
       style="font-size:13.2292px;font-family:'DejaVu Sans Mono', monospace;dominant-baseline:central;fill:#ffffff;stroke-width:0.332405"
       aria-label="▛" /><path
       d="M 120.3759,79.553141 V 63.837006 h 4.10828 v 15.716135 z"
       id="text21"
       style="font-size:13.2292px;font-family:'DejaVu Sans Mono', monospace;dominant-baseline:central;fill:#ffffff;stroke-width:0.332405"
       aria-label="▌" /><path
       d="m 128.31339,58.469139 v -7.854838 h 4.11475 v 7.854838 z"
       id="text22"
       style="font-size:13.2292px;font-family:'DejaVu Sans Mono', monospace;dominant-baseline:central;fill:#ffffff;stroke-width:0.332405"
       aria-label="▘" /><path
       d="m 136.25089,66.323977 v -7.854838 h 8.22303 v 7.854838 z"
       id="text23"
       style="font-size:13.2292px;font-family:'DejaVu Sans Mono', monospace;dominant-baseline:central;fill:#ffffff;stroke-width:0.332405"
       aria-label="▄" /><path
       d="M 136.25089,79.553141 V 63.837006 h 8.22303 v 15.716135 z"
       id="text24"
       style="font-size:13.2292px;font-family:'DejaVu Sans Mono', monospace;dominant-baseline:central;fill:#ffffff;stroke-width:0.332405"
       aria-label="█" /><path
       d="m 144.18839,58.469139 v -7.854838 h 8.22303 v 7.854838 z"
       id="text25"
       style="font-size:13.2292px;font-family:'DejaVu Sans Mono', monospace;dominant-baseline:central;fill:#ffffff;stroke-width:0.332405"
       aria-label="▀" /><path
       d="m 144.18839,71.698303 v -7.854838 h 8.22303 v 7.854838 z"
       id="text26"
       style="font-size:13.2292px;font-family:'DejaVu Sans Mono', monospace;dominant-baseline:central;fill:#ffffff;stroke-width:0.332405"
       aria-label="▀" /><path
       d="m 152.12589,58.469139 v -7.854838 h 8.22303 v 7.854838 z"
       id="text27"
       style="font-size:13.2292px;font-family:'DejaVu Sans Mono', monospace;dominant-baseline:central;fill:#ffffff;stroke-width:0.332405"
       aria-label="▀" /><path
       d="m 152.12589,71.698303 v -7.854838 h 8.22303 v 7.854838 z"
       id="text28"
       style="font-size:13.2292px;font-family:'DejaVu Sans Mono', monospace;dominant-baseline:central;fill:#ffffff;stroke-width:0.332405"
       aria-label="▀" /><path
       d="m 160.06339,66.323977 v -7.854838 h 8.22303 v 7.854838 z"
       id="text29"
       style="font-size:13.2292px;font-family:'DejaVu Sans Mono', monospace;dominant-baseline:central;fill:#ffffff;stroke-width:0.332405"
       aria-label="▄" /><path
       d="M 160.06339,79.553141 V 63.837006 h 8.22303 v 15.716135 z"
       id="text30"
       style="font-size:13.2292px;font-family:'DejaVu Sans Mono', monospace;dominant-baseline:central;fill:#ffffff;stroke-width:0.332405"
       aria-label="█" /><path
       d="m 172.11564,58.469139 v -7.854838 h 4.11474 v 7.854838 z"
       id="text31"
       style="font-size:13.2292px;font-family:'DejaVu Sans Mono', monospace;dominant-baseline:central;fill:#ffffff;stroke-width:0.332405"
       aria-label="▝" /><path
       d="m 184.16788,50.614301 v 15.709676 h -4.11474 v -7.854838 h -4.11475 v -7.854838 z"
       id="text32"
       style="font-size:13.2292px;font-family:'DejaVu Sans Mono', monospace;dominant-baseline:central;fill:#ffffff;stroke-width:0.332405"
       aria-label="▜" /><path
       d="M 180.05314,79.553141 V 63.837006 h 4.10828 v 15.716135 z"
       id="text33"
       style="font-size:13.2292px;font-family:'DejaVu Sans Mono', monospace;dominant-baseline:central;fill:#ffffff;stroke-width:0.332405"
       aria-label="▐" /><path
       d="m 183.87589,50.614301 h 8.22949 v 7.854838 h -4.11474 v 7.854838 h -4.11475 z"
       id="text34"
       style="font-size:13.2292px;font-family:'DejaVu Sans Mono', monospace;dominant-baseline:central;fill:#ffffff;stroke-width:0.332405"
       aria-label="▛" /><path
       d="M 183.87589,79.553141 V 63.837006 h 4.10829 v 15.716135 z"
       id="text35"
       style="font-size:13.2292px;font-family:'DejaVu Sans Mono', monospace;dominant-baseline:central;fill:#ffffff;stroke-width:0.332405"
       aria-label="▌" /><path
       d="m 191.81339,58.469139 v -7.854838 h 4.11475 v 7.854838 z"
       id="text36"
       style="font-size:13.2292px;font-family:'DejaVu Sans Mono', monospace;dominant-baseline:central;fill:#ffffff;stroke-width:0.332405"
       aria-label="▘" /><g
       id="g1"
       transform="matrix(0.16733504,0,0,0.16733504,201.18498,30.457269)"
       style="stroke-width:1.98646"><path
         fill="#ffffff"
         d="m 183.505,7.5 12.515,0.016 59.87,34.233 0.632,13.683 23.938,0.38 59.064,33.788 16.386,30.31 5.136,192.808 -11.126,16.582 -56.88,32.657 -19.564,-1.81 -13.315,20.69 -56.41,32.404 L 114.064,380.477 4.375,312.71 7.5,109.59 Z"
         id="path1"
         style="stroke-width:1.98646" /><path
         fill="#dc0000"
         d="m 182.88,0 13.14,7.516 -86.427,50.52 c 0,0 -26.15,13.174 -35.433,23.326 -11.362,12.428 -7.917,30.125 2.16,42.48 24.693,30.28 88.66,54.367 141.12,34.56 C 239.666,150.01 339.524,89.6 339.524,89.6 l 28.397,16.243 v 213.12 l -18,10.337 V 207.36 l -56.88,32.66 v 121.937 l -32.88,18.88 V 311.04 l 20.28,-12.24 v -51.543 l -20.28,11.646 c 0,0 -2.37,-32.09 1.92,-42.902 4.1,-10.31 15.74,-21.72 25.2,-18.72 6.95,2.21 5.76,24.95 5.76,24.95 0,0 42.95,-24.85 56.88,-32.86 2.25,-36.34 -9.13,-59 -43.92,-55.44 -15.87,1.63 -28.37,10.02 -38.88,17.28 -11.14,7.7 -20.4,16.555 -28.8,26.64 -15.89,19.1 -33.02,45.26 -35.28,76.32 -1.77,24.357 0.71,159.07 0.71,159.07 L 183.6,424.8 0,318.96 V 105.84 Z M 115.2,167.04 c -13.318,-10.95 -29.718,-21.208 -47.52,-25.2 -11.942,-2.678 -23.93,-1.128 -32.4,3.6 -22.328,12.466 -28.844,45.437 -26.64,77.76 3.508,51.445 22.065,86.146 48.96,113.04 17.977,17.977 47.576,39.66 74.16,41.76 27.702,2.187 36.335,-16.023 42.48,-36.72 -20.956,-14.324 -44.265,-26.296 -65.52,-40.32 -3.91,2.99 -3.572,6.328 -9.36,6.48 -5.15,0.135 -10.955,-4.727 -14.4,-9.36 -6.09,-8.19 -8.026,-21.054 -8.64,-30.96 33.78,18.062 66.363,37.317 100.08,55.44 3.688,-67.27 -23.104,-124.2 -61.2,-155.52 z M 280.46,55.813 194.665,108.545 c 0,0 -22.85,14.813 -38.136,13.134 -4.99,-0.55 -13.31,-4.77 -13.68,-8.64 -0.7,-7.16 25.2,-21.02 25.2,-21.02 L 255.889,41.749 280.46,55.8 Z M 109.44,241.2 c -11.23,-5.81 -21.966,-12.114 -32.4,-18.72 1.032,-7.922 2.438,-15.645 12.24,-13.68 11.49,2.303 19.817,20.686 20.16,32.4 z"
         id="path2"
         style="stroke-width:1.98646" /></g></g></svg>
